<svg xmlns="http://www.w3.org/2000/svg" xmlns:xlink="http://www.w3.org/1999/xlink" width="1366" zoomAndPan="magnify" viewBox="0 0 1024.5 576" height="768" preserveAspectRatio="xMidYMid meet" version="1.0"><defs><g/><clipPath id="632ba6590c"><path d="M 136 254 L 203 254 L 203 329 L 136 329 Z M 136 254 " clip-rule="nonzero"/></clipPath><clipPath id="b0b169aed2"><path d="M 126.988281 264.980469 L 184.226562 249.121094 L 204.453125 322.148438 L 147.21875 338.003906 Z M 126.988281 264.980469 " clip-rule="nonzero"/></clipPath><clipPath id="f3de003157"><path d="M 184.347656 249.089844 L 127.113281 264.945312 L 147.34375 337.96875 L 204.578125 322.113281 Z M 184.347656 249.089844 " clip-rule="nonzero"/></clipPath><clipPath id="c962abfe23"><path d="M 135 253 L 203 253 L 203 329 L 135 329 Z M 135 253 " clip-rule="nonzero"/></clipPath><clipPath id="4a8b79edcf"><path d="M 126.988281 264.980469 L 184.226562 249.121094 L 204.453125 322.148438 L 147.21875 338.003906 Z M 126.988281 264.980469 " clip-rule="nonzero"/></clipPath><clipPath id="22a7c46a40"><path d="M 184.347656 249.089844 L 127.113281 264.945312 L 147.34375 337.96875 L 204.578125 322.113281 Z M 184.347656 249.089844 " clip-rule="nonzero"/></clipPath><clipPath id="07f657e049"><path d="M 818 254 L 885 254 L 885 329 L 818 329 Z M 818 254 " clip-rule="nonzero"/></clipPath><clipPath id="ebf13d32d9"><path d="M 809.257812 264.980469 L 866.492188 249.121094 L 886.722656 322.148438 L 829.488281 338.003906 Z M 809.257812 264.980469 " clip-rule="nonzero"/></clipPath><clipPath id="f73dc0ccd0"><path d="M 866.617188 249.089844 L 809.378906 264.945312 L 829.609375 337.96875 L 886.847656 322.113281 Z M 866.617188 249.089844 " clip-rule="nonzero"/></clipPath><clipPath id="2f649254e8"><path d="M 817 253 L 885 253 L 885 329 L 817 329 Z M 817 253 " clip-rule="nonzero"/></clipPath><clipPath id="49cc304695"><path d="M 809.257812 264.980469 L 866.492188 249.121094 L 886.722656 322.148438 L 829.488281 338.003906 Z M 809.257812 264.980469 " clip-rule="nonzero"/></clipPath><clipPath id="45693df4b8"><path d="M 866.617188 249.089844 L 809.378906 264.945312 L 829.609375 337.96875 L 886.847656 322.113281 Z M 866.617188 249.089844 " clip-rule="nonzero"/></clipPath></defs><g fill="#000000" fill-opacity="1"><g transform="translate(36.082034, 334.680406)"><g><path d="M 68.140625 -85.671875 L 73.984375 -76.359375 L 23.078125 -45.140625 L 73.984375 -13.625 L 67.5 -4.765625 L 12.6875 -39.015625 L 12.6875 -51.40625 Z M 68.140625 -85.671875 "/></g></g></g><g fill="#000000" fill-opacity="1"><g transform="translate(122.60736, 334.680406)"><g/></g></g><g fill="#000000" fill-opacity="1"><g transform="translate(209.132686, 334.680406)"><g><path d="M 18.53125 -85.671875 L 73.984375 -51.40625 L 73.984375 -39.015625 L 19.25 -4.765625 L 12.6875 -13.703125 L 63.59375 -45.140625 L 12.6875 -76.515625 Z M 18.53125 -85.671875 "/></g></g></g><g fill="#000000" fill-opacity="1"><g transform="translate(295.658012, 334.680406)"><g><path d="M 19.546875 0 L 19.546875 -99.296875 L 32.09375 -99.296875 L 32.09375 -11.171875 L 77.375 -11.171875 L 75.9375 0 Z M 19.546875 0 "/></g></g></g><g fill="#000000" fill-opacity="1"><g transform="translate(382.183339, 334.680406)"><g><path d="M 76.078125 -99.296875 L 76.078125 -32.15625 C 76.078125 -25.476562 74.71875 -19.585938 72 -14.484375 C 69.28125 -9.390625 65.457031 -5.425781 60.53125 -2.59375 C 55.601562 0.238281 49.800781 1.65625 43.125 1.65625 C 36.289062 1.65625 30.4375 0.226562 25.5625 -2.625 C 20.6875 -5.488281 16.945312 -9.46875 14.34375 -14.5625 C 11.75 -19.65625 10.453125 -25.519531 10.453125 -32.15625 L 10.453125 -99.296875 L 22.859375 -99.296875 L 22.859375 -31.734375 C 22.859375 -24.179688 24.625 -18.53125 28.15625 -14.78125 C 31.6875 -11.03125 36.675781 -9.15625 43.125 -9.15625 C 49.613281 -9.15625 54.625 -11.03125 58.15625 -14.78125 C 61.6875 -18.53125 63.453125 -24.179688 63.453125 -31.734375 L 63.453125 -99.296875 Z M 76.078125 -99.296875 "/></g></g></g><g fill="#000000" fill-opacity="1"><g transform="translate(468.708665, 334.680406)"><g><path d="M 56.96875 0 L 22 -87.328125 C 22.039062 -86.222656 22.144531 -84.382812 22.3125 -81.8125 C 22.476562 -79.238281 22.671875 -76.179688 22.890625 -72.640625 C 23.109375 -69.109375 23.289062 -65.375 23.4375 -61.4375 C 23.582031 -57.5 23.65625 -53.601562 23.65625 -49.75 L 23.65625 0 L 12.046875 0 L 12.046875 -99.296875 L 28.984375 -99.296875 L 64.53125 -11.609375 C 64.488281 -13.003906 64.320312 -15.5625 64.03125 -19.28125 C 63.738281 -23.007812 63.472656 -27.515625 63.234375 -32.796875 C 62.992188 -38.085938 62.875 -43.691406 62.875 -49.609375 L 62.875 -99.296875 L 74.484375 -99.296875 L 74.484375 0 Z M 56.96875 0 "/></g></g></g><g fill="#000000" fill-opacity="1"><g transform="translate(555.233991, 334.680406)"><g><path d="M 62.515625 -25.3125 L 23.21875 -25.3125 L 15.28125 0 L 2.953125 0 L 35.265625 -99.296875 L 51.265625 -99.296875 L 83.578125 0 L 70.453125 0 Z M 26.46875 -35.6875 L 59.28125 -35.6875 L 42.984375 -88.765625 Z M 26.46875 -35.6875 "/></g></g></g><g fill="#000000" fill-opacity="1"><g transform="translate(641.759317, 334.680406)"><g><path d="M 68.140625 -85.671875 L 73.984375 -76.359375 L 23.078125 -45.140625 L 73.984375 -13.625 L 67.5 -4.765625 L 12.6875 -39.015625 L 12.6875 -51.40625 Z M 68.140625 -85.671875 "/></g></g></g><g fill="#000000" fill-opacity="1"><g transform="translate(728.284644, 334.680406)"><g><path d="M 17.375 14.859375 L 7.578125 10.53125 L 69.296875 -116.75 L 78.953125 -111.984375 Z M 17.375 14.859375 "/></g></g></g><g fill="#000000" fill-opacity="1"><g transform="translate(814.80997, 334.680406)"><g/></g></g><g fill="#000000" fill-opacity="1"><g transform="translate(901.335296, 334.680406)"><g><path d="M 18.53125 -85.671875 L 73.984375 -51.40625 L 73.984375 -39.015625 L 19.25 -4.765625 L 12.6875 -13.703125 L 63.59375 -45.140625 L 12.6875 -76.515625 Z M 18.53125 -85.671875 "/></g></g></g><g clip-path="url(#632ba6590c)"><g clip-path="url(#b0b169aed2)"><g clip-path="url(#f3de003157)"><path fill="#070404" d="M 163.480469 255.390625 C 170.773438 253.371094 178.519531 253.605469 185.667969 256.113281 C 168 255.644531 153.300781 269.589844 152.828125 287.261719 C 152.359375 304.929688 166.285156 319.632812 183.957031 320.105469 C 190.332031 320.28125 196.613281 318.539062 202.007812 315.101562 C 197.171875 320.929688 190.652344 325.136719 183.359375 327.140625 C 163.539062 332.628906 143.035156 321.019531 137.546875 301.203125 C 132.054688 281.386719 143.664062 260.882812 163.480469 255.390625 Z M 163.480469 255.390625 " fill-opacity="1" fill-rule="nonzero"/></g></g></g><g clip-path="url(#c962abfe23)"><g clip-path="url(#4a8b79edcf)"><g clip-path="url(#22a7c46a40)"><path fill="#070404" d="M 183.550781 327.605469 C 190.957031 325.554688 197.476562 321.347656 202.40625 315.410156 C 202.5625 315.21875 202.570312 314.945312 202.394531 314.765625 C 202.238281 314.578125 201.957031 314.53125 201.746094 314.675781 C 196.421875 318.070312 190.292969 319.769531 183.980469 319.59375 C 175.570312 319.378906 167.753906 315.886719 161.972656 309.78125 C 156.1875 303.679688 153.117188 295.679688 153.332031 287.265625 C 153.550781 278.855469 157.042969 271.039062 163.144531 265.253906 C 169.242188 259.453125 177.25 256.398438 185.660156 256.617188 C 185.914062 256.628906 186.117188 256.449219 186.171875 256.203125 C 186.210938 255.964844 186.082031 255.726562 185.851562 255.644531 C 178.566406 253.089844 170.8125 252.839844 163.40625 254.890625 C 163.386719 254.894531 163.367188 254.902344 163.367188 254.902344 C 143.316406 260.457031 131.527344 281.28125 137.082031 301.332031 C 142.636719 321.382812 163.441406 333.179688 183.492188 327.625 C 183.511719 327.617188 183.53125 327.613281 183.550781 327.605469 Z M 199.515625 317.109375 C 195.03125 321.648438 189.46875 324.925781 183.261719 326.644531 C 183.242188 326.648438 183.222656 326.652344 183.222656 326.652344 C 163.714844 332.058594 143.433594 320.578125 138.03125 301.070312 C 132.625 281.5625 144.109375 261.28125 163.617188 255.875 C 163.617188 255.875 163.65625 255.863281 163.65625 255.863281 C 169.859375 254.144531 176.316406 254.089844 182.5 255.675781 C 175 256.1875 167.984375 259.28125 162.4375 264.511719 C 156.136719 270.476562 152.546875 278.546875 152.300781 287.238281 C 152.078125 295.925781 155.238281 304.171875 161.203125 310.476562 C 167.167969 316.777344 175.238281 320.367188 183.929688 320.613281 C 189.394531 320.746094 194.722656 319.542969 199.515625 317.109375 Z M 199.515625 317.109375 " fill-opacity="1" fill-rule="nonzero"/></g></g></g><g clip-path="url(#07f657e049)"><g clip-path="url(#ebf13d32d9)"><g clip-path="url(#f73dc0ccd0)"><path fill="#070404" d="M 845.75 255.390625 C 853.042969 253.371094 860.789062 253.605469 867.9375 256.113281 C 850.265625 255.644531 835.570312 269.589844 835.097656 287.261719 C 834.628906 304.929688 848.554688 319.632812 866.226562 320.105469 C 872.601562 320.277344 878.882812 318.539062 884.277344 315.101562 C 879.441406 320.929688 872.921875 325.136719 865.625 327.136719 C 845.808594 332.628906 825.304688 321.019531 819.816406 301.203125 C 814.324219 281.386719 825.933594 260.882812 845.75 255.390625 Z M 845.75 255.390625 " fill-opacity="1" fill-rule="nonzero"/></g></g></g><g clip-path="url(#2f649254e8)"><g clip-path="url(#49cc304695)"><g clip-path="url(#45693df4b8)"><path fill="#070404" d="M 865.820312 327.605469 C 873.226562 325.554688 879.746094 321.347656 884.675781 315.410156 C 884.832031 315.21875 884.839844 314.945312 884.664062 314.765625 C 884.507812 314.578125 884.226562 314.53125 884.011719 314.675781 C 878.691406 318.070312 872.5625 319.769531 866.25 319.59375 C 857.839844 319.378906 850.023438 315.886719 844.238281 309.78125 C 838.457031 303.679688 835.382812 295.679688 835.601562 287.265625 C 835.820312 278.855469 839.3125 271.039062 845.414062 265.253906 C 851.511719 259.453125 859.519531 256.398438 867.929688 256.617188 C 868.183594 256.628906 868.382812 256.449219 868.441406 256.203125 C 868.480469 255.964844 868.351562 255.726562 868.121094 255.644531 C 860.835938 253.089844 853.082031 252.839844 845.675781 254.890625 C 845.65625 254.894531 845.636719 254.902344 845.636719 254.902344 C 825.585938 260.457031 813.792969 281.28125 819.347656 301.332031 C 824.902344 321.382812 845.710938 333.179688 865.761719 327.625 C 865.78125 327.617188 865.800781 327.613281 865.820312 327.605469 Z M 881.785156 317.109375 C 877.300781 321.648438 871.734375 324.925781 865.53125 326.644531 C 865.511719 326.648438 865.492188 326.652344 865.492188 326.652344 C 845.984375 332.058594 825.703125 320.578125 820.300781 301.070312 C 814.894531 281.5625 826.378906 261.28125 845.882812 255.875 C 845.882812 255.875 845.921875 255.863281 845.921875 255.863281 C 852.128906 254.144531 858.585938 254.089844 864.765625 255.675781 C 857.265625 256.1875 850.253906 259.28125 844.707031 264.511719 C 838.402344 270.476562 834.816406 278.546875 834.570312 287.238281 C 834.347656 295.925781 837.507812 304.171875 843.472656 310.476562 C 849.433594 316.777344 857.507812 320.367188 866.199219 320.613281 C 871.664062 320.746094 876.988281 319.542969 881.785156 317.109375 Z M 881.785156 317.109375 " fill-opacity="1" fill-rule="nonzero"/></g></g></g></svg>